<svg width="21" height="21" viewBox="0 0 21 21" fill="none" xmlns="http://www.w3.org/2000/svg">
<path d="M18.5778 21H18.4405C2.57521 20.0873 0.322574 6.69577 0.0076903 2.60885C-0.0176819 2.29108 0.0198728 1.97144 0.118202 1.66822C0.216532 1.365 0.373704 1.08417 0.580713 0.841819C0.787721 0.599469 1.0405 0.400363 1.32456 0.255909C1.60862 0.111454 1.91838 0.0244907 2.2361 7.57285e-07H6.68485C7.00826 -0.000312436 7.32431 0.0965278 7.59206 0.277978C7.85982 0.459427 8.06694 0.717126 8.1866 1.01769L9.41384 4.03846C9.53201 4.3321 9.56133 4.65399 9.49817 4.96415C9.43501 5.27431 9.28216 5.55908 9.05859 5.78308L7.33884 7.51962C7.60747 9.04676 8.33854 10.4545 9.43314 11.5524C10.5277 12.6503 11.933 13.3853 13.4589 13.6581L15.2109 11.9215C15.4382 11.7004 15.7256 11.551 16.0371 11.4921C16.3487 11.4332 16.6707 11.4674 16.963 11.5904L20.0069 12.81C20.3028 12.9335 20.5553 13.1423 20.7321 13.4098C20.909 13.6774 21.0022 13.9916 21 14.3123V18.5769C21 19.2196 20.7448 19.8359 20.2905 20.2903C19.8363 20.7447 19.2202 21 18.5778 21ZM2.42988 1.61539C2.21574 1.61539 2.01038 1.70048 1.85896 1.85195C1.70755 2.00342 1.62248 2.20886 1.62248 2.42308V2.48769C1.99388 7.26923 4.3757 18.5769 18.5293 19.3846C18.6354 19.3912 18.7417 19.3767 18.8422 19.3421C18.9427 19.3074 19.0353 19.2533 19.1148 19.1828C19.1943 19.1122 19.2592 19.0267 19.3055 18.931C19.3519 18.8354 19.379 18.7315 19.3852 18.6254V14.3123L16.3413 13.0927L14.0241 15.3946L13.6365 15.3462C6.61218 14.4658 5.65946 7.43885 5.65946 7.36615L5.61101 6.97846L7.90401 4.66039L6.69292 1.61539H2.42988Z" fill="#6A6A6A"/>
</svg>
