<svg width="212" height="228" viewBox="0 0 212 228" fill="none" xmlns="http://www.w3.org/2000/svg">
<g filter="url(#filter0_d_11_210)">
<path d="M175.177 101.467L57.2746 62.5033L36.4073 114.515L181.404 161.643L175.177 101.467Z" fill="url(#paint0_linear_11_210)"/>
<path d="M194.261 50.8401L191.42 44.9537C184.263 30.1637 171.529 18.8249 156.019 13.4318C140.509 8.03873 123.493 9.03302 108.716 16.196L23.4254 57.6195C21.8722 58.3744 20.4828 59.4281 19.3365 60.7206C18.1903 62.013 17.3096 63.5187 16.7449 65.1518C16.1801 66.7849 15.9423 68.5133 16.045 70.2384C16.1478 71.9635 16.5891 73.6514 17.3437 75.2057L36.4083 114.515L124.484 71.5063C125.886 70.8216 127.408 70.42 128.964 70.3242C130.521 70.2284 132.08 70.4405 133.555 70.9482C135.029 71.4559 136.389 72.2493 137.558 73.2831C138.726 74.317 139.679 75.571 140.362 76.9735C141.113 78.5427 142.167 79.9474 143.464 81.1061C144.761 82.2649 146.274 83.1547 147.917 83.7242C149.56 84.2936 151.299 84.5314 153.034 84.4237C154.769 84.316 156.465 83.865 158.025 83.0968L188.252 68.4081C191.368 66.8668 193.748 64.1547 194.874 60.8635C195.999 57.5724 195.779 53.9692 194.261 50.8401Z" fill="url(#paint1_linear_11_210)"/>
<path d="M175.177 101.467L194.223 140.776C194.981 142.331 195.424 144.021 195.528 145.748C195.633 147.475 195.395 149.206 194.83 150.841C194.266 152.476 193.384 153.984 192.236 155.277C191.088 156.571 189.697 157.626 188.141 158.381L102.851 199.804C88.0737 206.967 71.0583 207.961 55.5482 202.568C40.0381 197.175 27.3039 185.836 20.1468 171.046L17.3063 165.16C15.7935 162.017 15.5859 158.402 16.7291 155.107C17.8722 151.811 20.273 149.102 23.4062 147.574L53.6329 132.903C55.1855 132.145 56.8722 131.702 58.5965 131.598C60.3207 131.494 62.0485 131.731 63.6808 132.297C65.3132 132.862 66.818 133.744 68.109 134.893C69.4001 136.042 70.4519 137.434 71.2044 138.99C71.8881 140.393 72.8412 141.647 74.0093 142.68C75.1773 143.714 76.5374 144.508 78.0119 145.015C79.4863 145.523 81.0463 145.735 82.6026 145.639C84.159 145.544 85.6812 145.142 87.0824 144.457L175.177 101.467Z" fill="url(#paint2_linear_11_210)"/>
</g>
<defs>
<filter id="filter0_d_11_210" x="-2.28882e-05" y="0" width="211.583" height="228" filterUnits="userSpaceOnUse" color-interpolation-filters="sRGB">
<feFlood flood-opacity="0" result="BackgroundImageFix"/>
<feColorMatrix in="SourceAlpha" type="matrix" values="0 0 0 0 0 0 0 0 0 0 0 0 0 0 0 0 0 0 127 0" result="hardAlpha"/>
<feOffset dy="6"/>
<feGaussianBlur stdDeviation="8"/>
<feComposite in2="hardAlpha" operator="out"/>
<feColorMatrix type="matrix" values="0 0 0 0 0 0 0 0 0 0 0 0 0 0 0 0 0 0 0.16 0"/>
<feBlend mode="normal" in2="BackgroundImageFix" result="effect1_dropShadow_11_210"/>
<feBlend mode="normal" in="SourceGraphic" in2="effect1_dropShadow_11_210" result="shape"/>
</filter>
<linearGradient id="paint0_linear_11_210" x1="41.7243" y1="111.362" x2="216.11" y2="112.963" gradientUnits="userSpaceOnUse">
<stop offset="0.03" stop-color="#04709F"/>
<stop offset="0.78" stop-color="#4CA6A8"/>
</linearGradient>
<linearGradient id="paint1_linear_11_210" x1="20162.8" y1="-1273.45" x2="8296.05" y2="12146.9" gradientUnits="userSpaceOnUse">
<stop offset="0.03" stop-color="#16468F"/>
<stop offset="0.78" stop-color="#4CA6A8"/>
</linearGradient>
<linearGradient id="paint2_linear_11_210" x1="-62400.6" y1="-45158.7" x2="-81124.1" y2="-26467.4" gradientUnits="userSpaceOnUse">
<stop offset="0.03" stop-color="#4CA6A8"/>
<stop offset="0.671875" stop-color="#16468F"/>
</linearGradient>
</defs>
</svg>
